<svg width="28" height="26" viewBox="0 0 28 26" fill="none" xmlns="http://www.w3.org/2000/svg">
<path d="M10.75 1.625V4.875" stroke="#5F5F5F" stroke-width="2" stroke-linecap="round" stroke-linejoin="round"/>
<path d="M14 1.625V4.875" stroke="#5F5F5F" stroke-width="2" stroke-linecap="round" stroke-linejoin="round"/>
<path d="M17.25 1.625V4.875" stroke="#5F5F5F" stroke-width="2" stroke-linecap="round" stroke-linejoin="round"/>
<path d="M5.875 8.125H22.125C22.3405 8.125 22.5472 8.2106 22.6995 8.36298C22.8519 8.51535 22.9375 8.72201 22.9375 8.9375V18.6875C22.9375 19.334 22.6807 19.954 22.2236 20.4111C21.7665 20.8682 21.1465 21.125 20.5 21.125H7.5C6.85353 21.125 6.23355 20.8682 5.77643 20.4111C5.31931 19.954 5.0625 19.334 5.0625 18.6875V8.9375C5.0625 8.72201 5.1481 8.51535 5.30048 8.36298C5.45285 8.2106 5.65951 8.125 5.875 8.125Z" stroke="#5F5F5F" stroke-width="2" stroke-linecap="round" stroke-linejoin="round"/>
<path d="M26.1875 9.75L22.9375 12.1875" stroke="#5F5F5F" stroke-width="2" stroke-linecap="round" stroke-linejoin="round"/>
<path d="M1.8125 9.75L5.0625 12.1875" stroke="#5F5F5F" stroke-width="2" stroke-linecap="round" stroke-linejoin="round"/>
</svg>
