<svg width="22" height="17" viewBox="0 0 22 17" fill="none" xmlns="http://www.w3.org/2000/svg">
<path d="M18.6997 2.30739C18.6997 1.03833 17.7097 0 16.4998 0H13.1998V2.30739H16.4998V5.36468L12.6718 10.3833H8.79987V4.61478H4.39993C1.96897 4.61478 0 6.6799 0 9.22957V12.6907H2.19997C2.19997 14.6058 3.67395 16.1517 5.49992 16.1517C7.32589 16.1517 8.79987 14.6058 8.79987 12.6907H13.7278L18.6997 6.17227V2.30739ZM5.49992 13.8443C4.89493 13.8443 4.39993 13.3252 4.39993 12.6907H6.5999C6.5999 13.3252 6.10491 13.8443 5.49992 13.8443Z" fill="#5F5F5F"/>
<path d="M8.8007 1.1543H3.30078V3.46169H8.8007V1.1543Z" fill="#5F5F5F"/>
<path d="M18.6994 9.22949C16.8734 9.22949 15.3994 10.7754 15.3994 12.6906C15.3994 14.6057 16.8734 16.1517 18.6994 16.1517C20.5253 16.1517 21.9993 14.6057 21.9993 12.6906C21.9993 10.7754 20.5253 9.22949 18.6994 9.22949ZM18.6994 13.8443C18.0944 13.8443 17.5994 13.3251 17.5994 12.6906C17.5994 12.056 18.0944 11.5369 18.6994 11.5369C19.3044 11.5369 19.7993 12.056 19.7993 12.6906C19.7993 13.3251 19.3044 13.8443 18.6994 13.8443Z" fill="#5F5F5F"/>
</svg>
