<svg width="41" height="30" viewBox="0 0 41 30" fill="none" xmlns="http://www.w3.org/2000/svg">
<path d="M34.7322 4.28567C34.7322 1.92855 32.8934 0 30.646 0H24.5168V4.28567H30.646V9.96417L23.5362 19.2855H16.3446V8.57133H8.17228C3.65709 8.57133 0 12.407 0 17.1427V23.5712H4.08614C4.08614 27.1283 6.82385 29.9997 10.2153 29.9997C13.6068 29.9997 16.3446 27.1283 16.3446 23.5712H25.4975L34.7322 11.4642V4.28567ZM10.2153 25.714C9.09166 25.714 8.17228 24.7497 8.17228 23.5712H12.2584C12.2584 24.7497 11.339 25.714 10.2153 25.714Z" fill="#E0929D"/>
<path d="M16.3448 2.14258H6.12944V6.42824H16.3448V2.14258Z" fill="#E0929D"/>
<path d="M34.7327 17.1436C31.3412 17.1436 28.6035 20.015 28.6035 23.5721C28.6035 27.1292 31.3412 30.0006 34.7327 30.0006C38.1242 30.0006 40.8619 27.1292 40.8619 23.5721C40.8619 20.015 38.1242 17.1436 34.7327 17.1436ZM34.7327 25.7149C33.609 25.7149 32.6897 24.7506 32.6897 23.5721C32.6897 22.3935 33.609 21.4292 34.7327 21.4292C35.8564 21.4292 36.7758 22.3935 36.7758 23.5721C36.7758 24.7506 35.8564 25.7149 34.7327 25.7149Z" fill="#E0929D"/>
</svg>
