<svg width="8" height="11" viewBox="0 0 8 11" fill="none" xmlns="http://www.w3.org/2000/svg">
<path d="M7.5 2.50433H6V2.00347C6 1.47211 5.78929 0.962525 5.41421 0.586802C5.03914 0.211079 4.53043 0 4 0C3.46957 0 2.96086 0.211079 2.58579 0.586802C2.21071 0.962525 2 1.47211 2 2.00347V2.50433H0.5C0.367392 2.50433 0.240215 2.5571 0.146447 2.65103C0.0526785 2.74496 0 2.87236 0 3.0052V8.51473C0 8.91325 0.158035 9.29544 0.43934 9.57723C0.720644 9.85902 1.10218 10.0173 1.5 10.0173H6.5C6.89782 10.0173 7.27936 9.85902 7.56066 9.57723C7.84196 9.29544 8 8.91325 8 8.51473V3.0052C8 2.87236 7.94732 2.74496 7.85355 2.65103C7.75979 2.5571 7.63261 2.50433 7.5 2.50433ZM3 2.00347C3 1.73779 3.10536 1.483 3.29289 1.29513C3.48043 1.10727 3.73478 1.00173 4 1.00173C4.26522 1.00173 4.51957 1.10727 4.70711 1.29513C4.89464 1.483 5 1.73779 5 2.00347V2.50433H3V2.00347ZM7 8.51473C7 8.64757 6.94732 8.77497 6.85355 8.8689C6.75979 8.96283 6.63261 9.0156 6.5 9.0156H1.5C1.36739 9.0156 1.24021 8.96283 1.14645 8.8689C1.05268 8.77497 1 8.64757 1 8.51473V3.50607H2V4.00693C2 4.13977 2.05268 4.26717 2.14645 4.3611C2.24021 4.45503 2.36739 4.5078 2.5 4.5078C2.63261 4.5078 2.75979 4.45503 2.85355 4.3611C2.94732 4.26717 3 4.13977 3 4.00693V3.50607H5V4.00693C5 4.13977 5.05268 4.26717 5.14645 4.3611C5.24021 4.45503 5.36739 4.5078 5.5 4.5078C5.63261 4.5078 5.75979 4.45503 5.85355 4.3611C5.94732 4.26717 6 4.13977 6 4.00693V3.50607H7V8.51473Z" fill="#666666"/>
</svg>
